<?xml version="1.0" encoding="iso-8859-1"?>
<!-- Uploaded to: SVG Repo, www.svgrepo.com, Generator: SVG Repo Mixer Tools -->
<svg height="800px" width="800px" version="1.1" id="Layer_1" xmlns="http://www.w3.org/2000/svg" xmlns:xlink="http://www.w3.org/1999/xlink" 
	 viewBox="0 0 456 456" xml:space="preserve">
<path style="fill:#939598;" d="M44,324V116c0-17.6,14.4-32,32-32h304c17.6,0,32,14.4,32,32v208"/>
<path style="fill:#6D6E71;" d="M412,332c-4.4,0-8-3.6-8-8V116c0-13.2-10.8-24-24-24H76c-13.2,0-24,10.8-24,24v208c0,4.4-3.6,8-8,8
	s-8-3.6-8-8V116c0-22,18-40,40-40h304c22,0,40,18,40,40v208C420,328.4,416.4,332,412,332z"/>
<path style="fill:#818387;" d="M284,324h163.6l0.4,16c0,17.6-14.4,32-32,32H40c-17.6,0-32-14.4-32-32v-16h168.4"/>
<path style="fill:#6D6E71;" d="M416,380H40c-22,0-40-18-40-40v-16c0-4.4,3.6-8,8-8h168.4c4.4,0,8,3.6,8,8s-3.6,8-8,8H16v8
	c0,13.2,10.8,24,24,24h376c13.2,0,24-10.8,24-24v-8H284c-4.4,0-8-3.6-8-8s3.6-8,8-8h163.6c4.4,0,8,3.6,8,8l0.4,16
	C456,362,438,380,416,380z"/>
<path style="fill:#493F3F;" d="M376,292H80c-2.4,0-4-1.6-4-4V120c0-2.4,1.6-4,4-4h296c2.4,0,4,1.6,4,4v168
	C380,290.4,378.4,292,376,292z"/>
<path style="fill:#352F31;" d="M376,300H80c-6.8,0-12-5.2-12-12V120c0-6.8,5.2-12,12-12h296c6.8,0,12,5.2,12,12v168
	C388,294.8,382.8,300,376,300z M84,284h288V124H84V284z"/>
<path style="fill:#6D6E71;" d="M243.6,332H216c-4.4,0-8-3.6-8-8s3.6-8,8-8h27.6c4.4,0,8,3.6,8,8S248,332,243.6,332z"/>
<g>
	<path style="fill:#FFE53C;" d="M248,188H120c-4.4,0-8-3.6-8-8s3.6-8,8-8h128c4.4,0,8,3.6,8,8S252.4,188,248,188z"/>
	<path style="fill:#FFE53C;" d="M172,220h-52c-4.4,0-8-3.6-8-8s3.6-8,8-8h52c4.4,0,8,3.6,8,8S176.4,220,172,220z"/>
	<path style="fill:#FFE53C;" d="M220,220h-12c-4.4,0-8-3.6-8-8s3.6-8,8-8h12c4.4,0,8,3.6,8,8S224.4,220,220,220z"/>
</g>
</svg>